# xmcd CD database file
# Copyright (C) 1993-1998 Ti Kan
#
# Track frame offsets:
# 150
# 19974
# 39780
# 59808
# 103363
# 130771
# 151260
# 173283
# 196478
# 220577
# 239359
# 257031
#
# Disc length: 3997 seconds
#
# Revision: 0
# Processed by: cddbd v1.4b41PL1 Copyright (c) Steve Scherf et al.
# Submitted via: inCDius 1.1b8
#
DISCID=a00f9b0c
DTITLE=Red Arichibald and The Internationals - It Just Won't Go Away
DYEAR=1900
DGENRE=
TTITLE0=Insanity
TTITLE1=Pretty Feet
TTITLE2=I Need Your Love
TTITLE3=I'm Cryin'
TTITLE4=Snatchin' It Back
TTITLE5=She Upsets Me
TTITLE6=It Just Won't Go Away
TTITLE7=Flim Flam Man
TTITLE8=It's Terminal
TTITLE9=Check Yourself (You'd Better)
TTITLE10=She's A Smooth Operator
TTITLE11=Starin' Out The Window
EXTD=
EXTT0=
EXTT1=
EXTT2=
EXTT3=
EXTT4=
EXTT5=
EXTT6=
EXTT7=
EXTT8=
EXTT9=
EXTT10=
EXTT11=
PLAYORDER=
